# UnitCylinder — GENERATED by generate.py --mesh; unit size, scaled by the controller
o UnitCylinder
v 1 -1 0
v 0.991444861 -1 0.130526192
v 0.965925826 -1 0.258819045
v 0.923879533 -1 0.382683432
v 0.866025404 -1 0.5
v 0.79335334 -1 0.608761429
v 0.707106781 -1 0.707106781
v 0.608761429 -1 0.79335334
v 0.5 -1 0.866025404
v 0.382683432 -1 0.923879533
v 0.258819045 -1 0.965925826
v 0.130526192 -1 0.991444861
v 6.123234e-17 -1 1
v -0.130526192 -1 0.991444861
v -0.258819045 -1 0.965925826
v -0.382683432 -1 0.923879533
v -0.5 -1 0.866025404
v -0.608761429 -1 0.79335334
v -0.707106781 -1 0.707106781
v -0.79335334 -1 0.608761429
v -0.866025404 -1 0.5
v -0.923879533 -1 0.382683432
v -0.965925826 -1 0.258819045
v -0.991444861 -1 0.130526192
v -1 -1 1.2246468e-16
v -0.991444861 -1 -0.130526192
v -0.965925826 -1 -0.258819045
v -0.923879533 -1 -0.382683432
v -0.866025404 -1 -0.5
v -0.79335334 -1 -0.608761429
v -0.707106781 -1 -0.707106781
v -0.608761429 -1 -0.79335334
v -0.5 -1 -0.866025404
v -0.382683432 -1 -0.923879533
v -0.258819045 -1 -0.965925826
v -0.130526192 -1 -0.991444861
v -1.8369702e-16 -1 -1
v 0.130526192 -1 -0.991444861
v 0.258819045 -1 -0.965925826
v 0.382683432 -1 -0.923879533
v 0.5 -1 -0.866025404
v 0.608761429 -1 -0.79335334
v 0.707106781 -1 -0.707106781
v 0.79335334 -1 -0.608761429
v 0.866025404 -1 -0.5
v 0.923879533 -1 -0.382683432
v 0.965925826 -1 -0.258819045
v 0.991444861 -1 -0.130526192
v 1 -1 -2.4492936e-16
v 1 1 0
v 0.991444861 1 0.130526192
v 0.965925826 1 0.258819045
v 0.923879533 1 0.382683432
v 0.866025404 1 0.5
v 0.79335334 1 0.608761429
v 0.707106781 1 0.707106781
v 0.608761429 1 0.79335334
v 0.5 1 0.866025404
v 0.382683432 1 0.923879533
v 0.258819045 1 0.965925826
v 0.130526192 1 0.991444861
v 6.123234e-17 1 1
v -0.130526192 1 0.991444861
v -0.258819045 1 0.965925826
v -0.382683432 1 0.923879533
v -0.5 1 0.866025404
v -0.608761429 1 0.79335334
v -0.707106781 1 0.707106781
v -0.79335334 1 0.608761429
v -0.866025404 1 0.5
v -0.923879533 1 0.382683432
v -0.965925826 1 0.258819045
v -0.991444861 1 0.130526192
v -1 1 1.2246468e-16
v -0.991444861 1 -0.130526192
v -0.965925826 1 -0.258819045
v -0.923879533 1 -0.382683432
v -0.866025404 1 -0.5
v -0.79335334 1 -0.608761429
v -0.707106781 1 -0.707106781
v -0.608761429 1 -0.79335334
v -0.5 1 -0.866025404
v -0.382683432 1 -0.923879533
v -0.258819045 1 -0.965925826
v -0.130526192 1 -0.991444861
v -1.8369702e-16 1 -1
v 0.130526192 1 -0.991444861
v 0.258819045 1 -0.965925826
v 0.382683432 1 -0.923879533
v 0.5 1 -0.866025404
v 0.608761429 1 -0.79335334
v 0.707106781 1 -0.707106781
v 0.79335334 1 -0.608761429
v 0.866025404 1 -0.5
v 0.923879533 1 -0.382683432
v 0.965925826 1 -0.258819045
v 0.991444861 1 -0.130526192
v 1 1 -2.4492936e-16
vn 1 0 0
vn 0.991444861 0 0.130526192
vn 0.965925826 0 0.258819045
vn 0.923879533 0 0.382683432
vn 0.866025404 0 0.5
vn 0.79335334 0 0.608761429
vn 0.707106781 0 0.707106781
vn 0.608761429 0 0.79335334
vn 0.5 0 0.866025404
vn 0.382683432 0 0.923879533
vn 0.258819045 0 0.965925826
vn 0.130526192 0 0.991444861
vn 6.123234e-17 0 1
vn -0.130526192 0 0.991444861
vn -0.258819045 0 0.965925826
vn -0.382683432 0 0.923879533
vn -0.5 0 0.866025404
vn -0.608761429 0 0.79335334
vn -0.707106781 0 0.707106781
vn -0.79335334 0 0.608761429
vn -0.866025404 0 0.5
vn -0.923879533 0 0.382683432
vn -0.965925826 0 0.258819045
vn -0.991444861 0 0.130526192
vn -1 0 1.2246468e-16
vn -0.991444861 0 -0.130526192
vn -0.965925826 0 -0.258819045
vn -0.923879533 0 -0.382683432
vn -0.866025404 0 -0.5
vn -0.79335334 0 -0.608761429
vn -0.707106781 0 -0.707106781
vn -0.608761429 0 -0.79335334
vn -0.5 0 -0.866025404
vn -0.382683432 0 -0.923879533
vn -0.258819045 0 -0.965925826
vn -0.130526192 0 -0.991444861
vn -1.8369702e-16 0 -1
vn 0.130526192 0 -0.991444861
vn 0.258819045 0 -0.965925826
vn 0.382683432 0 -0.923879533
vn 0.5 0 -0.866025404
vn 0.608761429 0 -0.79335334
vn 0.707106781 0 -0.707106781
vn 0.79335334 0 -0.608761429
vn 0.866025404 0 -0.5
vn 0.923879533 0 -0.382683432
vn 0.965925826 0 -0.258819045
vn 0.991444861 0 -0.130526192
vn 1 0 -2.4492936e-16
vn 1 0 0
vn 0.991444861 0 0.130526192
vn 0.965925826 0 0.258819045
vn 0.923879533 0 0.382683432
vn 0.866025404 0 0.5
vn 0.79335334 0 0.608761429
vn 0.707106781 0 0.707106781
vn 0.608761429 0 0.79335334
vn 0.5 0 0.866025404
vn 0.382683432 0 0.923879533
vn 0.258819045 0 0.965925826
vn 0.130526192 0 0.991444861
vn 6.123234e-17 0 1
vn -0.130526192 0 0.991444861
vn -0.258819045 0 0.965925826
vn -0.382683432 0 0.923879533
vn -0.5 0 0.866025404
vn -0.608761429 0 0.79335334
vn -0.707106781 0 0.707106781
vn -0.79335334 0 0.608761429
vn -0.866025404 0 0.5
vn -0.923879533 0 0.382683432
vn -0.965925826 0 0.258819045
vn -0.991444861 0 0.130526192
vn -1 0 1.2246468e-16
vn -0.991444861 0 -0.130526192
vn -0.965925826 0 -0.258819045
vn -0.923879533 0 -0.382683432
vn -0.866025404 0 -0.5
vn -0.79335334 0 -0.608761429
vn -0.707106781 0 -0.707106781
vn -0.608761429 0 -0.79335334
vn -0.5 0 -0.866025404
vn -0.382683432 0 -0.923879533
vn -0.258819045 0 -0.965925826
vn -0.130526192 0 -0.991444861
vn -1.8369702e-16 0 -1
vn 0.130526192 0 -0.991444861
vn 0.258819045 0 -0.965925826
vn 0.382683432 0 -0.923879533
vn 0.5 0 -0.866025404
vn 0.608761429 0 -0.79335334
vn 0.707106781 0 -0.707106781
vn 0.79335334 0 -0.608761429
vn 0.866025404 0 -0.5
vn 0.923879533 0 -0.382683432
vn 0.965925826 0 -0.258819045
vn 0.991444861 0 -0.130526192
vn 1 0 -2.4492936e-16
f 1//1 50//50 2//2
f 2//2 50//50 51//51
f 2//2 51//51 3//3
f 3//3 51//51 52//52
f 3//3 52//52 4//4
f 4//4 52//52 53//53
f 4//4 53//53 5//5
f 5//5 53//53 54//54
f 5//5 54//54 6//6
f 6//6 54//54 55//55
f 6//6 55//55 7//7
f 7//7 55//55 56//56
f 7//7 56//56 8//8
f 8//8 56//56 57//57
f 8//8 57//57 9//9
f 9//9 57//57 58//58
f 9//9 58//58 10//10
f 10//10 58//58 59//59
f 10//10 59//59 11//11
f 11//11 59//59 60//60
f 11//11 60//60 12//12
f 12//12 60//60 61//61
f 12//12 61//61 13//13
f 13//13 61//61 62//62
f 13//13 62//62 14//14
f 14//14 62//62 63//63
f 14//14 63//63 15//15
f 15//15 63//63 64//64
f 15//15 64//64 16//16
f 16//16 64//64 65//65
f 16//16 65//65 17//17
f 17//17 65//65 66//66
f 17//17 66//66 18//18
f 18//18 66//66 67//67
f 18//18 67//67 19//19
f 19//19 67//67 68//68
f 19//19 68//68 20//20
f 20//20 68//68 69//69
f 20//20 69//69 21//21
f 21//21 69//69 70//70
f 21//21 70//70 22//22
f 22//22 70//70 71//71
f 22//22 71//71 23//23
f 23//23 71//71 72//72
f 23//23 72//72 24//24
f 24//24 72//72 73//73
f 24//24 73//73 25//25
f 25//25 73//73 74//74
f 25//25 74//74 26//26
f 26//26 74//74 75//75
f 26//26 75//75 27//27
f 27//27 75//75 76//76
f 27//27 76//76 28//28
f 28//28 76//76 77//77
f 28//28 77//77 29//29
f 29//29 77//77 78//78
f 29//29 78//78 30//30
f 30//30 78//78 79//79
f 30//30 79//79 31//31
f 31//31 79//79 80//80
f 31//31 80//80 32//32
f 32//32 80//80 81//81
f 32//32 81//81 33//33
f 33//33 81//81 82//82
f 33//33 82//82 34//34
f 34//34 82//82 83//83
f 34//34 83//83 35//35
f 35//35 83//83 84//84
f 35//35 84//84 36//36
f 36//36 84//84 85//85
f 36//36 85//85 37//37
f 37//37 85//85 86//86
f 37//37 86//86 38//38
f 38//38 86//86 87//87
f 38//38 87//87 39//39
f 39//39 87//87 88//88
f 39//39 88//88 40//40
f 40//40 88//88 89//89
f 40//40 89//89 41//41
f 41//41 89//89 90//90
f 41//41 90//90 42//42
f 42//42 90//90 91//91
f 42//42 91//91 43//43
f 43//43 91//91 92//92
f 43//43 92//92 44//44
f 44//44 92//92 93//93
f 44//44 93//93 45//45
f 45//45 93//93 94//94
f 45//45 94//94 46//46
f 46//46 94//94 95//95
f 46//46 95//95 47//47
f 47//47 95//95 96//96
f 47//47 96//96 48//48
f 48//48 96//96 97//97
f 48//48 97//97 49//49
f 49//49 97//97 98//98
